<svg xmlns="http://www.w3.org/2000/svg" width="356" height="60" viewBox="0 0 356 60">
  <g id="Group_111" data-name="Group 111" transform="translate(-1536 -985)">
    <g id="twitter" transform="translate(1747 997.01)">
      <g id="Group_102" data-name="Group 102" transform="translate(1 2.99)">
        <path id="Path_101" data-name="Path 101" d="M37.781,3.007a18.224,18.224,0,0,1-5.25,2.558,7.49,7.49,0,0,0-13.141,5.016v1.672A17.822,17.822,0,0,1,4.344,4.679S-2.344,19.726,12.7,26.413A19.461,19.461,0,0,1,1,29.757c15.047,8.359,33.438,0,33.438-19.227A7.523,7.523,0,0,0,34.3,9.143a12.907,12.907,0,0,0,3.478-6.136Z" transform="translate(-1 -2.99)" fill="none" stroke="#fff" stroke-linecap="round" stroke-linejoin="round" stroke-width="2"/>
      </g>
    </g>
    <g id="instagram" transform="translate(1648 998)">
      <g id="Group_103" data-name="Group 103" transform="translate(2 2)">
        <rect id="Rectangle_164" data-name="Rectangle 164" width="30" height="30" rx="5" fill="none" stroke="#fff" stroke-linecap="round" stroke-linejoin="round" stroke-width="2"/>
        <path id="Path_102" data-name="Path 102" d="M19.978,13.077a6,6,0,1,1-5.055-5.055A6,6,0,0,1,19.978,13.077Z" transform="translate(1.022 0.978)" fill="none" stroke="#fff" stroke-linecap="round" stroke-linejoin="round" stroke-width="2"/>
        <path id="Path_103" data-name="Path 103" d="M17.5,6.5h.015" transform="translate(5.75 0.25)" fill="none" stroke="#fff" stroke-linecap="round" stroke-linejoin="round" stroke-width="2"/>
      </g>
    </g>
    <g id="tiktok" transform="translate(1548 997)">
      <g id="Group_104" data-name="Group 104" transform="translate(3 3)">
        <path id="Path_104" data-name="Path 104" d="M33,11.333V24.667A8.333,8.333,0,0,1,24.667,33H11.333A8.333,8.333,0,0,1,3,24.667V11.333A8.333,8.333,0,0,1,11.333,3H24.667A8.333,8.333,0,0,1,33,11.333Z" transform="translate(-3 -3)" fill="none" stroke="#fff" stroke-linecap="round" stroke-linejoin="round" stroke-width="1.5"/>
        <path id="Path_105" data-name="Path 105" d="M13.6,18C9.955,18,7,20.686,7,24s2.955,6,6.6,6,6.6-2.686,6.6-6V6A9.506,9.506,0,0,0,29,12" transform="translate(-3 -3)" fill="none" stroke="#fff" stroke-linecap="round" stroke-linejoin="round" stroke-width="1.5"/>
      </g>
    </g>
    <g id="facebook" transform="translate(1848 998)">
      <g id="Group_105" data-name="Group 105" transform="translate(6 2)">
        <path id="Path_106" data-name="Path 106" d="M22.5,2H18a7.5,7.5,0,0,0-7.5,7.5V14H6v6h4.5V32h6V20H21l1.5-6h-6V9.5A1.5,1.5,0,0,1,18,8h4.5Z" transform="translate(-6 -2)" fill="none" stroke="#fff" stroke-linecap="round" stroke-linejoin="round" stroke-width="1.5"/>
      </g>
    </g>
    <g id="Ellipse_21" data-name="Ellipse 21" transform="translate(1536 985)" fill="none" stroke="#000" stroke-width="2">
      <circle cx="30" cy="30" r="30" stroke="none"/>
      <circle cx="30" cy="30" r="29" fill="none"/>
    </g>
    <g id="Ellipse_22" data-name="Ellipse 22" transform="translate(1736 985)" fill="none" stroke="#000" stroke-width="2">
      <circle cx="30" cy="30" r="30" stroke="none"/>
      <circle cx="30" cy="30" r="29" fill="none"/>
    </g>
    <g id="Ellipse_24" data-name="Ellipse 24" transform="translate(1635 985)" fill="none" stroke="#000" stroke-width="2">
      <circle cx="30" cy="30" r="30" stroke="none"/>
      <circle cx="30" cy="30" r="29" fill="none"/>
    </g>
    <g id="Ellipse_23" data-name="Ellipse 23" transform="translate(1832 985)" fill="none" stroke="#000" stroke-width="2">
      <circle cx="30" cy="30" r="30" stroke="none"/>
      <circle cx="30" cy="30" r="29" fill="none"/>
    </g>
  </g>
</svg>
